<svg height="512" width="512" xmlns="http://www.w3.org/2000/svg"><path d="M468.161 464.969H43.84c-20.07 0-36.339-16.27-36.339-36.339V52.922a5.891 5.891 0 015.891-5.891H425.93a5.891 5.891 0 015.891 5.891v54.488l50.231 171.417z" fill="#f9f6f6"/><path d="M463.605 453.913l-31.783-77.118V52.922a5.892 5.892 0 00-5.891-5.891h-24.754v381.598c0 20.07 16.27 36.34 36.339 36.34 10.24 0 19.484-4.241 26.089-11.056z" fill="#dddaec"/><path d="M468.161 464.969c-20.07 0-36.339-16.27-36.339-36.339V68.423h66.788a5.891 5.891 0 015.891 5.891v354.315c-.001 20.07-16.27 36.34-36.34 36.34z" fill="#dddaec"/><path d="M459.605 428.629V68.423h-27.783v360.206c0 20.07 16.27 36.34 36.339 36.34a36.21 36.21 0 0013.891-2.756c-13.176-5.456-22.447-18.435-22.447-33.584z" fill="#d0cee7"/><path d="M362.031 297.119h-78.798c-7.671 0-13.89-6.219-13.89-13.89v-78.798c0-7.671 6.219-13.89 13.89-13.89h78.798c7.671 0 13.89 6.219 13.89 13.89v78.798c.001 7.672-6.218 13.89-13.89 13.89z" fill="#df73c1"/><path d="M362.031 190.541h-25.426c7.671 0 13.89 6.219 13.89 13.89v78.798c0 7.671-6.219 13.89-13.89 13.89h25.426c7.671 0 13.89-6.219 13.89-13.89v-78.798c.001-7.671-6.218-13.89-13.89-13.89z" fill="#dd4fb1"/><path d="M85.934 77.574a7.501 7.501 0 00-5.268 7.16v67.505c0 4.143 3.357 7.5 7.5 7.5s7.5-3.357 7.5-7.5v-43.445l31.973 46.299c2.243 3.239 5.97 4.622 9.488 3.52 3.603-1.125 5.931-4.521 5.931-8.725l-.632-65.352c-.041-4.142-3.393-7.483-7.572-7.428a7.5 7.5 0 00-7.428 7.572l.429 44.328-33.517-48.536a7.502 7.502 0 00-8.404-2.898zM189.294 92.417c4.143 0 7.5-3.357 7.5-7.5s-3.357-7.5-7.5-7.5h-28.236a7.499 7.499 0 00-7.5 7.5v67.014c0 4.143 3.357 7.5 7.5 7.5h28.236c4.143 0 7.5-3.357 7.5-7.5s-3.357-7.5-7.5-7.5h-20.736v-18.507h18.654c4.143 0 7.5-3.357 7.5-7.5s-3.357-7.5-7.5-7.5h-18.654V92.417zM327.146 144.739c-6.987 0-13.721-2.827-18.011-7.562a7.5 7.5 0 10-11.115 10.073c7.086 7.82 17.975 12.489 29.126 12.489 13.79 0 25.363-8.765 27.52-20.84 1.615-9.049-2.541-20.889-19.052-26.979-8.459-3.12-16.322-6.522-18.574-7.509-1.631-1.264-2.416-3.233-2.11-5.363.197-1.375 1.182-4.73 6.049-6.196 10.034-3.019 19.232 4.269 19.49 4.477a7.5 7.5 0 009.619-11.509c-.622-.523-15.443-12.751-33.436-7.33-8.978 2.704-15.327 9.766-16.57 18.428-1.344 9.364 4.023 18.154 10.206 20.911.39.174 9.675 4.308 20.135 8.165 3.19 1.177 10.501 4.533 9.477 10.271-.746 4.164-5.719 8.474-12.754 8.474zM288.455 77.376a7.494 7.494 0 00-8.819 5.892l-8.574 43.077L257.524 82.4c-2.274-7.381-12.958-6.89-14.517.708l-13.385 43.242-8.544-43.196a7.5 7.5 0 00-14.714 2.91c14.029 70.776 13.119 66.69 13.467 67.67a9.031 9.031 0 008.505 6.006h.061a9.034 9.034 0 008.55-6.317l13.412-43.331c14.08 45.697 13.351 43.36 13.452 43.642a9.031 9.031 0 008.505 6.006h.062c4.374-.03 7.981-3.214 8.74-7.071l13.229-66.472a7.5 7.5 0 00-5.892-8.821zM52.24 205.66c0 4.143 3.357 7.5 7.5 7.5h161.554c4.143 0 7.5-3.357 7.5-7.5s-3.357-7.5-7.5-7.5H59.74a7.5 7.5 0 00-7.5 7.5zM59.74 254.799h161.554c4.143 0 7.5-3.357 7.5-7.5s-3.357-7.5-7.5-7.5H59.74c-4.143 0-7.5 3.357-7.5 7.5s3.358 7.5 7.5 7.5zM59.74 296.438h161.554c4.143 0 7.5-3.357 7.5-7.5s-3.357-7.5-7.5-7.5H59.74c-4.143 0-7.5 3.357-7.5 7.5s3.358 7.5 7.5 7.5zM59.74 338.078h316.182c4.143 0 7.5-3.357 7.5-7.5s-3.357-7.5-7.5-7.5H59.74c-4.143 0-7.5 3.357-7.5 7.5s3.358 7.5 7.5 7.5zM59.74 379.716h316.182c4.143 0 7.5-3.357 7.5-7.5s-3.357-7.5-7.5-7.5H59.74c-4.143 0-7.5 3.357-7.5 7.5s3.358 7.5 7.5 7.5zM59.74 421.356h316.182c4.143 0 7.5-3.357 7.5-7.5s-3.357-7.5-7.5-7.5H59.74c-4.143 0-7.5 3.357-7.5 7.5s3.358 7.5 7.5 7.5z"/><path d="M504.5 144.746c4.143 0 7.5-3.357 7.5-7.5V74.315c0-7.384-6.007-13.392-13.391-13.392h-59.288v-8.001c0-7.384-6.007-13.392-13.391-13.392H13.392C6.008 39.531 0 45.539 0 52.922v290.23c0 4.143 3.357 7.5 7.5 7.5s7.5-3.357 7.5-7.5V54.531h409.321V428.63c0 11.036 4.108 21.125 10.864 28.84H43.84c-15.902 0-28.84-12.938-28.84-28.84v-55.49c0-4.143-3.357-7.5-7.5-7.5s-7.5 3.357-7.5 7.5v55.489c0 24.174 19.666 43.84 43.84 43.84h424.321c24.173 0 43.839-19.667 43.839-43.84V167.232c0-4.143-3.357-7.5-7.5-7.5s-7.5 3.357-7.5 7.5v261.397c0 15.902-12.938 28.84-28.839 28.84-15.902 0-28.84-12.938-28.84-28.84V75.923H497v61.322a7.5 7.5 0 007.5 7.501z"/><path d="M261.844 204.431v78.798c0 11.795 9.596 21.391 21.39 21.391h78.798c11.795 0 21.391-9.596 21.391-21.391v-78.798c0-11.794-9.596-21.39-21.391-21.39H340.53c-4.143 0-7.5 3.357-7.5 7.5s3.357 7.5 7.5 7.5h21.501a6.398 6.398 0 016.391 6.39v78.798a6.399 6.399 0 01-6.391 6.391h-78.798a6.398 6.398 0 01-6.39-6.391v-78.798a6.397 6.397 0 016.39-6.39h27.31c4.143 0 7.5-3.357 7.5-7.5s-3.357-7.5-7.5-7.5h-27.31c-11.794.001-21.389 9.596-21.389 21.39z"/></svg>