<svg width="22" height="22" fill="none" xmlns="http://www.w3.org/2000/svg"><path fill-rule="evenodd" clip-rule="evenodd" d="M6.967 2h8.066A4.973 4.973 0 0120 6.967v8.066A4.973 4.973 0 0115.033 20H6.966A4.973 4.973 0 012 15.033V6.967A4.973 4.973 0 016.967 2zm8.066 16.403a3.374 3.374 0 003.37-3.37V6.967a3.374 3.374 0 00-3.37-3.37H6.966a3.374 3.374 0 00-3.37 3.37v8.066a3.374 3.374 0 003.37 3.37h8.066zM6.286 11A4.72 4.72 0 0111 6.286 4.72 4.72 0 0115.714 11 4.72 4.72 0 0111 15.714 4.72 4.72 0 016.286 11zm1.623 0A3.094 3.094 0 0011 14.09 3.094 3.094 0 0014.091 11 3.095 3.095 0 0011 7.909 3.095 3.095 0 007.909 11z" fill="#59CBEA"/><mask id="a" maskUnits="userSpaceOnUse" x="2" y="2" width="18" height="18"><path fill-rule="evenodd" clip-rule="evenodd" d="M6.967 2h8.066A4.973 4.973 0 0120 6.967v8.066A4.973 4.973 0 0115.033 20H6.966A4.973 4.973 0 012 15.033V6.967A4.973 4.973 0 016.967 2zm8.066 16.403a3.374 3.374 0 003.37-3.37V6.967a3.374 3.374 0 00-3.37-3.37H6.966a3.374 3.374 0 00-3.37 3.37v8.066a3.374 3.374 0 003.37 3.37h8.066zM6.286 11A4.72 4.72 0 0111 6.286 4.72 4.72 0 0115.714 11 4.72 4.72 0 0111 15.714 4.72 4.72 0 016.286 11zm1.623 0A3.094 3.094 0 0011 14.09 3.094 3.094 0 0014.091 11 3.095 3.095 0 0011 7.909 3.095 3.095 0 007.909 11z" fill="#fff"/></mask></svg>